<?xml version="1.0" encoding="iso-8859-1"?>
<!-- Generator: Adobe Illustrator 19.0.0, SVG Export Plug-In . SVG Version: 6.00 Build 0)  -->
<svg version="1.1" id="Layer_1" xmlns="http://www.w3.org/2000/svg" xmlns:xlink="http://www.w3.org/1999/xlink" x="0px" y="0px"
	 viewBox="0 0 512 512" style="enable-background:new 0 0 512 512;" xml:space="preserve">
<g transform="translate(1 1)">
	<g>
		<g>
			<path d="M399.213,370.2c0.853-2.56,1.707-5.973,0-8.533L262.68,88.6c-3.413-5.973-12.8-5.973-15.36,0L110.787,361.667
				c-1.707,2.56-1.707,5.973,0,8.533s5.12,4.267,7.68,4.267h273.067C394.093,374.467,398.36,372.76,399.213,370.2z M132.12,357.4
				L255,111.64L377.88,357.4H132.12z"/>
			<path d="M246.467,195.267v93.867c0,5.12,3.413,8.533,8.533,8.533s8.533-3.413,8.533-8.533v-93.867
				c0-5.12-3.413-8.533-8.533-8.533S246.467,190.147,246.467,195.267z"/>
			<path d="M255,314.733c-5.12,0-8.533,3.413-8.533,8.533S249.88,331.8,255,331.8s8.533-3.413,8.533-8.533
				S260.12,314.733,255,314.733z"/>
			<path d="M255,7.533c-140.8,0-256,115.2-256,256c0,78.424,35.94,150.455,99.316,198.333L86.04,480.28
				c-1.707,2.56-1.707,5.973-0.853,8.533c1.707,2.56,4.267,5.12,6.827,5.12l68.267,8.533h0.853c2.56,0,5.12-1.707,7.68-3.413
				c1.707-3.413,1.707-6.827,0-9.387l-34.133-59.733c-0.853-2.56-4.267-4.267-6.827-4.267c-3.413-0.853-5.973,0.853-7.68,3.413
				l-12.339,18.508C49.192,402.42,16.067,336.53,16.067,263.533C16.067,132.12,123.587,24.6,255,24.6
				s238.933,107.52,238.933,238.933c0,93.867-54.613,179.2-139.947,217.6c-4.267,1.707-5.973,6.827-4.267,11.093
				c1.707,3.413,4.267,5.12,7.68,5.12c0.853,0,2.56,0,3.413-0.853C452.12,455.533,511,363.373,511,263.533
				C511,122.733,395.8,7.533,255,7.533z M126.147,450.413l18.773,33.28l-37.547-5.12l8.298-12.447
				c0.399-0.37,0.765-0.775,1.089-1.207c0.669-0.836,1.135-1.706,1.437-2.582L126.147,450.413z"/>
		</g>
	</g>
</g>
<g>
</g>
<g>
</g>
<g>
</g>
<g>
</g>
<g>
</g>
<g>
</g>
<g>
</g>
<g>
</g>
<g>
</g>
<g>
</g>
<g>
</g>
<g>
</g>
<g>
</g>
<g>
</g>
<g>
</g>
</svg>
